<svg width="488" height="323" viewBox="0 0 488 323" fill="none" xmlns="http://www.w3.org/2000/svg">
<g clip-path="url(#clip0_1_3)">
<path d="M359.814 156.706C355.953 148.43 347.129 131.324 344.372 128.565C342.718 127.462 339.409 123.599 333.342 97.1133C330.033 82.7676 327.827 67.8692 327.275 59.5925C326.172 44.1426 319.003 28.6927 316.798 24.8302C313.488 19.8642 303.562 6.62139 303.562 6.62139L299.149 0.551785C296.943 2.12671e-06 295.289 0 294.186 0C279.847 0 253.376 5.51782 246.758 5.51782C240.14 5.51782 208.153 0 193.814 0C192.16 0 190.505 2.12671e-06 188.851 0.551785L184.439 6.62139C184.439 6.62139 173.961 20.4159 171.203 24.8302C168.446 28.6927 161.276 44.1426 160.725 59.5925C160.174 67.8692 157.967 82.7676 154.658 97.1133C149.143 123.599 145.283 126.91 143.628 128.565C140.871 131.324 131.496 149.533 128.186 157.258C128.186 157.81 127.635 158.362 127.635 158.362L125.43 164.983C125.43 165.535 124.878 166.087 124.878 167.19C138.665 185.399 159.07 208.022 161.276 214.091C164.034 222.92 175.615 246.647 189.403 248.302C203.19 249.958 238.486 242.784 247.309 244.44C256.133 243.336 285.362 250.509 299.701 248.302C314.04 246.095 325.07 222.92 327.827 214.091C329.482 208.022 349.887 185.95 363.674 167.742C363.123 166.087 363.123 165.535 362.571 164.983L359.814 156.706ZM183.887 124.703C183.887 124.703 172.306 120.84 170.651 114.771C168.997 108.701 170.1 102.08 172.306 97.6654C174.512 93.8029 178.924 88.837 178.924 88.837C178.924 88.837 187.748 89.3884 188.3 100.976C188.851 112.563 183.887 124.703 183.887 124.703ZM247.86 233.956C247.86 235.611 251.721 237.818 252.273 238.37C252.824 239.474 261.097 242.784 261.097 242.784H232.419C232.419 242.784 240.14 239.474 241.242 238.37C241.794 237.266 245.655 235.059 245.655 233.956C245.655 232.852 246.207 216.299 245.655 215.195C245.103 214.091 228.007 198.642 228.007 198.642L247.309 210.229L266.612 198.642C266.612 198.642 249.515 214.091 248.963 215.195C247.309 216.299 247.86 232.3 247.86 233.956ZM322.312 114.219C321.209 120.84 309.077 124.151 309.077 124.151C309.077 124.151 304.113 111.46 304.113 100.424C304.664 88.837 313.488 88.2849 313.488 88.2849C313.488 88.2849 317.9 92.6995 320.106 97.1133C322.864 101.528 323.967 108.149 322.312 114.219Z" fill="#9730DB"/>
<path d="M154.658 59.5924C155.761 43.5908 162.93 27.0373 166.239 22.0713C169.548 17.1052 180.027 3.31069 180.027 3.31069L146.938 19.3124C146.938 19.3124 141.973 22.6231 135.356 26.4855C124.878 33.1069 109.987 42.4873 107.229 44.1426C102.818 46.3497 54.2863 129.669 54.2863 135.187C54.2863 141.256 16.7848 239.474 16.2333 242.233C15.6818 244.991 1.34299 283.064 1.34299 283.064C1.34299 283.064 -3.06895 292.996 4.10046 301.825C10.1669 308.998 19.5423 313.964 26.1602 314.516C25.0572 308.998 19.5423 283.616 25.0572 261.545C25.6087 259.89 25.6087 259.89 49.8744 220.713C58.6983 206.366 67.5222 192.572 69.1766 189.261C70.2797 187.606 70.8311 185.95 94.5451 171.605L116.605 158.362L117.157 157.81L121.568 155.05C127.083 144.015 134.804 127.462 138.665 123.599C144.731 119.185 153.555 75.594 154.658 59.5924ZM486.657 283.064C486.657 283.064 472.318 244.991 471.767 242.233C471.215 240.025 433.713 141.256 433.713 135.187C433.713 129.117 384.631 46.3497 380.771 43.5908C378.013 41.9355 363.122 32.5552 352.644 25.9337C346.027 22.0713 341.062 18.7606 341.062 18.7606L307.973 2.75891C307.973 2.75891 318.452 16.5534 321.76 21.5195C325.07 26.4855 332.239 43.039 333.342 59.0407C334.445 75.0424 342.717 118.633 348.232 124.151C352.093 128.013 360.365 145.119 365.88 156.155L370.292 158.913L370.843 159.465L392.903 172.708C416.618 187.055 417.169 188.709 418.272 190.365C419.926 193.675 428.75 206.918 437.574 221.816C461.839 260.441 461.839 260.993 462.391 262.649C468.457 284.72 462.943 310.102 461.288 315.619C468.457 315.068 477.833 310.102 483.899 302.928C491.069 293.548 486.657 283.064 486.657 283.064Z" fill="#9730DB"/>
<path d="M74.1407 192.572C73.5892 193.675 71.9347 195.883 70.2803 198.642C59.2503 216.299 31.1242 261.545 30.5727 262.649C24.5063 285.823 31.6757 313.964 31.6757 313.964C31.6757 313.964 32.2272 313.964 32.7787 313.412C33.3302 312.861 34.4332 312.309 34.9846 311.757C46.0145 305.136 79.104 284.168 83.5163 274.787C87.9278 265.408 108.885 196.986 116.606 172.156C117.157 170.5 117.709 168.846 117.709 167.742C118.26 164.983 118.811 163.328 118.811 163.328C118.811 163.328 118.26 163.88 116.606 164.431C108.885 170.5 75.2436 190.365 74.1407 192.572ZM413.861 192.572C412.206 189.813 380.22 171.053 370.844 165.534C369.189 164.431 368.086 163.88 368.086 163.88C368.086 163.88 369.741 168.846 371.947 177.122C380.22 204.711 399.522 265.959 403.382 274.787C404.485 276.995 406.691 279.753 410 282.512C413.861 285.823 418.824 289.686 423.787 293.548C434.266 301.273 446.398 308.998 452.465 312.309C454.671 313.412 455.774 314.516 455.774 314.516V313.964C456.877 310.102 462.392 284.72 456.877 263.2C456.326 261.545 417.721 200.297 413.861 192.572Z" fill="#9730DB"/>
</g>
<defs>
<clipPath id="clip0_1_3">
<rect width="488" height="323" fill="white"/>
</clipPath>
</defs>
</svg>
